<?xml version="1.0" standalone="no"?>
<!DOCTYPE svg PUBLIC "-//W3C//DTD SVG 20010904//EN"
 "http://www.w3.org/TR/2001/REC-SVG-20010904/DTD/svg10.dtd">
<svg version="1.0" xmlns="http://www.w3.org/2000/svg"
 width="1014.000000pt" height="1280.000000pt" viewBox="0 0 1014.000000 1280.000000"
 preserveAspectRatio="xMidYMid meet">
<metadata>
Created by potrace 1.15, written by Peter Selinger 2001-2017
</metadata>
<g transform="translate(0.000000,1280.000000) scale(0.100000,-0.100000)"
fill="#000000" stroke="none">
<path d="M6665 12794 c-11 -2 -45 -9 -75 -15 -76 -15 -193 -72 -225 -110 -87
-104 -242 -547 -375 -1068 -14 -54 -31 -96 -50 -120 -61 -76 -340 -604 -340
-643 0 -7 9 -24 20 -38 30 -39 24 -41 -37 -13 -70 31 -177 42 -224 23 -44 -19
-59 -61 -59 -167 -1 -48 -5 -133 -10 -188 -6 -55 -13 -130 -16 -168 -13 -128
48 -260 135 -297 l30 -12 -45 -89 c-45 -91 -56 -106 -47 -66 5 22 -42 -38
-170 -221 l-72 -103 -60 4 c-245 16 -834 -68 -1438 -204 -538 -121 -881 -250
-1048 -392 -86 -74 -254 -257 -569 -622 -123 -143 -269 -306 -324 -361 -123
-123 -149 -135 -259 -115 -158 30 -168 28 -229 -27 -23 -20 -101 -112 -174
-203 -73 -92 -154 -186 -181 -209 -46 -40 -153 -100 -181 -100 -25 0 -112 -51
-147 -85 -48 -49 -89 -134 -126 -262 -35 -123 -58 -170 -137 -292 -30 -47 -71
-119 -90 -160 l-35 -74 -10 -211 c-16 -320 9 -551 73 -676 47 -92 211 -251
371 -360 l66 -45 -46 -15 c-191 -63 -36 -378 421 -856 l88 -92 93 -16 c300
-51 511 -48 690 11 42 14 134 57 203 94 l126 69 298 -222 298 -223 7 -61 c16
-138 -31 -337 -180 -769 -277 -799 -321 -939 -355 -1122 -21 -113 -45 -205
-124 -482 -59 -204 -45 -331 38 -366 61 -26 220 -55 439 -81 120 -14 43 -14
-139 0 -104 9 -315 24 -469 36 -154 11 -336 25 -405 30 -69 5 -316 24 -550 41
-234 17 -560 41 -725 53 -165 13 -301 23 -303 21 -1 -1 51 -23 115 -49 l117
-48 205 -13 c113 -8 276 -19 361 -25 85 -6 295 -19 465 -30 311 -20 481 -31
760 -50 83 -6 357 -24 610 -40 541 -35 722 -47 905 -60 74 -5 217 -15 318 -21
l182 -12 10 -36 c5 -20 39 -155 75 -301 64 -256 67 -266 101 -297 101 -90 424
-151 856 -160 485 -11 921 52 1052 152 38 29 41 36 47 90 6 53 82 361 92 371
2 2 53 -1 113 -6 60 -5 231 -19 379 -30 149 -11 324 -25 390 -30 66 -6 248
-19 404 -31 264 -20 286 -23 319 -45 62 -42 127 -25 151 39 l9 22 253 -16
c340 -23 531 -36 795 -55 122 -8 239 -14 260 -12 22 2 -136 16 -351 31 -580
41 -950 69 -951 70 -1 1 3 34 8 72 6 47 6 114 -2 205 -22 265 -65 485 -191
980 -95 376 -112 460 -112 560 0 179 91 411 303 770 104 177 164 223 435 330
147 58 228 103 252 140 9 13 22 53 30 88 18 85 58 169 200 417 125 218 214
390 251 485 59 151 64 248 32 610 -29 335 -26 493 16 655 34 136 83 205 215
306 91 69 119 116 119 200 0 54 -10 98 -114 499 -87 338 -100 418 -101 610 0
91 3 177 8 192 7 26 4 29 -38 49 -59 28 -138 99 -159 144 -9 19 -21 74 -27
122 -6 48 -14 102 -20 119 -14 45 -65 89 -144 125 -152 68 -502 274 -1113 652
l-403 249 -23 -21 c-12 -11 -27 -21 -33 -21 -6 0 -13 -3 -15 -7 -2 -5 -28 -30
-57 -58 l-54 -50 58 69 c163 195 234 319 304 528 l38 113 57 5 57 5 70 160
c191 436 337 837 311 854 -5 3 38 89 95 191 179 317 403 736 451 843 58 129
64 184 29 260 -34 75 -84 127 -191 198 -156 105 -367 201 -719 328 -384 138
-661 213 -907 247 -97 13 -258 17 -305 8z m-4246 -6975 c16 -90 41 -234 56
-319 15 -85 29 -164 32 -175 3 -12 -16 2 -49 37 -65 69 -171 158 -260 218 -61
42 -66 48 -72 89 -9 68 -7 109 7 118 6 4 43 8 81 8 67 0 69 1 103 40 19 23 41
64 51 97 9 31 18 55 19 54 2 -1 16 -76 32 -167z m119 -551 c11 -18 27 -69 35
-112 12 -66 12 -85 2 -110 l-13 -31 -6 25 c-6 24 -46 250 -46 257 0 10 11 -1
28 -29z"/>
<path d="M9428 453 c17 -2 47 -2 65 0 17 2 3 4 -33 4 -36 0 -50 -2 -32 -4z"/>
<path d="M9578 443 c12 -2 30 -2 40 0 9 3 -1 5 -23 4 -22 0 -30 -2 -17 -4z"/>
</g>
</svg>
